<svg xmlns="http://www.w3.org/2000/svg" viewBox="0 0 280 320">
  <ellipse cx="140" cy="294" rx="62" ry="18" fill="#000" fill-opacity=".18"/>
  <g transform="translate(0 8)">
    <path d="M82 182c0-53 28-90 63-90 38 0 62 36 62 90v45H82v-45z" fill="#6b3b22"/>
    <path d="M104 212l-15 89h35l10-50 11 50h35l-18-89h-58z" fill="#5a2e1e"/>
    <path d="M132 38c-36 0-61 30-61 66 0 30 18 55 44 64l-5 28h65l-5-28c26-9 44-34 44-64 0-36-25-66-61-66h-21z" fill="#73c248"/>
    <path d="M75 92l-21-24 26-23 27 27zm141 0l21-24-26-23-27 27z" fill="#79ce49"/>
    <path d="M73 101c0-40 30-70 76-70 43 0 74 28 74 70 0 21-6 36-13 50-14-17-33-26-56-28-15 11-38 19-68 19-5 0-10 2-15 5-1-14-2-28 2-46z" fill="#457d2d"/>
    <circle cx="120" cy="101" r="8" fill="#fff5a9"/>
    <circle cx="170" cy="101" r="8" fill="#fff5a9"/>
    <path d="M108 131c10 12 25 18 41 18 17 0 31-6 44-18" fill="none" stroke="#30431f" stroke-width="8" stroke-linecap="round"/>
    <path d="M80 175l-30 56 25 10 32-48-27-18zm130 0l30 56-25 10-32-48 27-18z" fill="#73c248"/>
    <g transform="translate(195 173) rotate(-22)">
      <rect x="0" y="0" width="14" height="88" rx="7" fill="#7f5f38"/>
      <circle cx="8" cy="6" r="20" fill="#a07c46"/>
      <circle cx="8" cy="6" r="10" fill="#6d512d"/>
    </g>
    <path d="M123 166l17 16 17-16v36h-34v-36z" fill="#95db61"/>
  </g>
</svg>
