<svg xmlns="http://www.w3.org/2000/svg" viewBox="0 0 360 520">
  <defs>
    <linearGradient id="bgAura" x1="0" x2="0" y1="0" y2="1">
      <stop offset="0" stop-color="#dff4ff" stop-opacity=".72"/>
      <stop offset=".42" stop-color="#8ed0ff" stop-opacity=".2"/>
      <stop offset="1" stop-color="#081019" stop-opacity="0"/>
    </linearGradient>
    <linearGradient id="coatShell" x1="0" x2="1" y1="0" y2="1">
      <stop offset="0" stop-color="#f7fbff"/>
      <stop offset=".48" stop-color="#d8e2ec"/>
      <stop offset="1" stop-color="#8e9dac"/>
    </linearGradient>
    <linearGradient id="coatShadow" x1="0" x2="1" y1="0" y2="1">
      <stop offset="0" stop-color="#0f1721"/>
      <stop offset=".5" stop-color="#18212d"/>
      <stop offset="1" stop-color="#090e15"/>
    </linearGradient>
    <linearGradient id="armorPlate" x1="0" x2="0" y1="0" y2="1">
      <stop offset="0" stop-color="#283649"/>
      <stop offset=".6" stop-color="#172231"/>
      <stop offset="1" stop-color="#0c131b"/>
    </linearGradient>
    <linearGradient id="trimGlow" x1="0" x2="1">
      <stop offset="0" stop-color="#a4e7ff"/>
      <stop offset=".52" stop-color="#effbff"/>
      <stop offset="1" stop-color="#5fb0dd"/>
    </linearGradient>
    <linearGradient id="hairFront" x1="0" x2="1" y1="0" y2="1">
      <stop offset="0" stop-color="#546272"/>
      <stop offset=".48" stop-color="#293340"/>
      <stop offset="1" stop-color="#0d1218"/>
    </linearGradient>
    <linearGradient id="hairBack" x1="0" x2="0" y1="0" y2="1">
      <stop offset="0" stop-color="#73849a"/>
      <stop offset=".42" stop-color="#35404d"/>
      <stop offset="1" stop-color="#11171e"/>
    </linearGradient>
    <linearGradient id="skin" x1="0" x2="0" y1="0" y2="1">
      <stop offset="0" stop-color="#f8dcc8"/>
      <stop offset=".58" stop-color="#efc7b0"/>
      <stop offset="1" stop-color="#cf9f88"/>
    </linearGradient>
    <linearGradient id="lipShade" x1="0" x2="0" y1="0" y2="1">
      <stop offset="0" stop-color="#d89086"/>
      <stop offset="1" stop-color="#ae6159"/>
    </linearGradient>
    <linearGradient id="scarf" x1="0" x2="1" y1="0" y2="1">
      <stop offset="0" stop-color="#f18663"/>
      <stop offset=".52" stop-color="#d45444"/>
      <stop offset="1" stop-color="#8f2f2e"/>
    </linearGradient>
    <linearGradient id="gunMetal" x1="0" x2="1">
      <stop offset="0" stop-color="#171d25"/>
      <stop offset=".45" stop-color="#42505d"/>
      <stop offset="1" stop-color="#bccddb"/>
    </linearGradient>
    <radialGradient id="visorGlow" cx=".4" cy=".35" r=".8">
      <stop offset="0" stop-color="#f4feff"/>
      <stop offset=".35" stop-color="#c5f2ff"/>
      <stop offset=".7" stop-color="#74d3f8"/>
      <stop offset="1" stop-color="#315b78"/>
    </radialGradient>
  </defs>

  <ellipse cx="180" cy="486" rx="92" ry="24" fill="#000" fill-opacity=".16"/>
  <ellipse cx="180" cy="116" rx="116" ry="118" fill="url(#bgAura)"/>

  <g transform="translate(0 2)">
    <path d="M180 114l58 20c36 18 56 58 54 112l-8 120h-38l-18-109-48 27-48-27-18 109H84l-8-120c-2-54 18-94 54-112l50-18z" fill="url(#coatShell)"/>
    <path d="M116 248l20 182h44l6-118 6 118h44l20-182-32 18-44-21-44 21-32-18z" fill="url(#coatShadow)"/>
    <path d="M124 176l56-18 56 18v106l-56 18-56-18V176z" fill="url(#armorPlate)"/>
    <path d="M144 184h72v30l-36 13-36-13v-30z" fill="#314356"/>
    <path d="M142 218l38 14 38-14v48l-38 14-38-14v-48z" fill="#101720"/>
    <path d="M133 200l47 22 47-22 10 48-57 27-57-27 10-48z" fill="#eff8ff" fill-opacity=".22"/>
    <path d="M168 162h24l18 28-30 19-30-19 18-28z" fill="url(#scarf)"/>
    <path d="M114 204l-14 30 26 20 15-22-27-28z" fill="#ecf7ff" fill-opacity=".58"/>
    <path d="M246 204l14 30-26 20-15-22 27-28z" fill="#ecf7ff" fill-opacity=".4"/>
    <path d="M154 292h52" fill="none" stroke="url(#trimGlow)" stroke-width="4.2" stroke-linecap="round"/>

    <path d="M180 84c-34 0-60 27-60 63 0 28 17 52 42 62l-7 26h50l-7-26c25-10 42-34 42-62 0-36-26-63-60-63z" fill="url(#skin)"/>
    <path d="M121 119c0-50 34-84 79-84 47 0 82 33 82 83 0 20-7 40-19 58-5-20-15-37-29-51-17 18-43 28-77 28-11 0-22-1-33-3-3 11-8 25-16 42-13-16-20-42-20-73z" fill="url(#hairBack)"/>
    <path d="M132 108c8-17 23-30 40-36-10 14-10 35 5 54 22 26 59 31 89 27-13-22-33-39-56-47 24-2 43 3 58 13-8-34-36-58-68-58-32 0-57 15-68 47z" fill="url(#hairFront)"/>
    <path d="M145 109c18 13 38 19 61 19 19 0 37-3 54-10-5-10-13-18-24-26-22 10-52 11-91 4z" fill="#8b9cb2" fill-opacity=".45"/>
    <path d="M142 136c12 7 27 10 45 10 17 0 32-3 46-10-5 16-15 30-26 38-18 4-33 4-41 0-13-9-20-21-24-38z" fill="#f2cab4" fill-opacity=".45"/>
    <path d="M153 141c7-8 16-11 26-10" fill="none" stroke="#352524" stroke-width="4" stroke-linecap="round"/>
    <path d="M181 131c11-2 21 2 28 10" fill="none" stroke="#352524" stroke-width="4" stroke-linecap="round"/>
    <path d="M153 154c8 5 16 5 24 0" fill="none" stroke="#785850" stroke-width="2.8" stroke-linecap="round"/>
    <path d="M185 154c8 5 16 5 24 0" fill="none" stroke="#785850" stroke-width="2.8" stroke-linecap="round"/>
    <ellipse cx="165" cy="154" rx="5.4" ry="6.6" fill="#1f2a37"/>
    <ellipse cx="195" cy="154" rx="5.4" ry="6.6" fill="#1f2a37"/>
    <circle cx="163.4" cy="152.5" r="1.5" fill="#fff" fill-opacity=".8"/>
    <circle cx="193.4" cy="152.5" r="1.5" fill="#fff" fill-opacity=".8"/>
    <path d="M176 168c2 3 6 4 10 3" fill="none" stroke="#bb897c" stroke-width="2.8" stroke-linecap="round"/>
    <path d="M160 182c7 8 14 11 20 11 6 0 13-3 20-11" fill="none" stroke="url(#lipShade)" stroke-width="3.2" stroke-linecap="round"/>
    <path d="M150 170c7 16 17 26 30 30 18-1 32-10 40-27-7 23-20 37-40 42-18-2-31-14-38-34z" fill="#d39e88" fill-opacity=".24"/>
    <path d="M138 114c13-4 23-1 31 6-13-1-23 2-32 9 0-6 0-11 1-15z" fill="#202831" fill-opacity=".55"/>

    <path d="M111 236l-38 43 20 25 48-34 10-25-40-9z" fill="url(#skin)"/>
    <path d="M249 234l40 30-12 24-49-18-11-26 32-10z" fill="url(#skin)"/>
    <path d="M106 220l19 17 10 42-33 27-19-17 17-48 6-21z" fill="#dce4ee"/>
    <path d="M246 220l-19 20-10 38 37 23 17-21-13-45-12-15z" fill="#cad4df"/>

    <g transform="translate(205 210) rotate(-10)">
      <rect x="0" y="16" width="136" height="18" rx="9" fill="url(#gunMetal)"/>
      <rect x="82" y="6" width="44" height="10" rx="5" fill="url(#visorGlow)"/>
      <rect x="108" y="19" width="40" height="12" rx="6" fill="#f3be68"/>
      <rect x="28" y="28" width="24" height="54" rx="11" fill="#111821"/>
      <rect x="18" y="11" width="38" height="8" rx="4" fill="#334150"/>
      <rect x="48" y="13" width="18" height="24" rx="4" fill="#25303b"/>
      <path d="M18 34l-27 27 10 10 31-17V34H18z" fill="#263140"/>
      <path d="M20 19h90" fill="none" stroke="#d6e3ef" stroke-width="2.6" stroke-linecap="round" stroke-opacity=".6"/>
    </g>

    <path d="M132 358l-18 116h42l20-89 4 89h40l4-89 20 89h42l-18-116-90 16-90-16z" fill="#1a232e"/>
    <path d="M144 360l36 8 36-8 8 62-44 18-44-18 8-62z" fill="#0d151d"/>
    <path d="M156 430l-14 48h28l8-38-22-10zm48 0l22 10 8 38h-28l-14-48z" fill="#0f161f"/>
    <path d="M154 470h28l-2 24h-32l6-24zm56 0h28l6 24h-32l-2-24z" fill="#d5dee8"/>
    <path d="M125 186h8m94 0h8m-64 132v28m18-28v28" fill="none" stroke="url(#trimGlow)" stroke-width="3.2" stroke-linecap="round" stroke-opacity=".9"/>
  </g>
</svg>
