<svg xmlns="http://www.w3.org/2000/svg" viewBox="0 0 360 520">
  <defs>
    <linearGradient id="bgGlow" x1="0" x2="0" y1="0" y2="1">
      <stop offset="0" stop-color="#d9efff" stop-opacity=".42"/>
      <stop offset=".5" stop-color="#9fd7ff" stop-opacity=".14"/>
      <stop offset="1" stop-color="#0c1622" stop-opacity="0"/>
    </linearGradient>
    <linearGradient id="coatOuter" x1="0" x2="1" y1="0" y2="1">
      <stop offset="0" stop-color="#f6fbff"/>
      <stop offset=".45" stop-color="#d8e1eb"/>
      <stop offset="1" stop-color="#9ca8b8"/>
    </linearGradient>
    <linearGradient id="coatInner" x1="0" x2="1" y1="0" y2="1">
      <stop offset="0" stop-color="#141c28"/>
      <stop offset=".55" stop-color="#1d2735"/>
      <stop offset="1" stop-color="#0b121a"/>
    </linearGradient>
    <linearGradient id="armor" x1="0" x2="0" y1="0" y2="1">
      <stop offset="0" stop-color="#212d3b"/>
      <stop offset="1" stop-color="#0f151d"/>
    </linearGradient>
    <linearGradient id="weapon" x1="0" x2="1">
      <stop offset="0" stop-color="#1d232d"/>
      <stop offset=".55" stop-color="#4f5c69"/>
      <stop offset="1" stop-color="#9ab0c4"/>
    </linearGradient>
    <linearGradient id="hair" x1="0" x2="1" y1="0" y2="1">
      <stop offset="0" stop-color="#4a5667"/>
      <stop offset=".5" stop-color="#202936"/>
      <stop offset="1" stop-color="#0a1017"/>
    </linearGradient>
    <linearGradient id="scarf" x1="0" x2="1" y1="0" y2="1">
      <stop offset="0" stop-color="#ee7a65"/>
      <stop offset="1" stop-color="#a73e34"/>
    </linearGradient>
    <linearGradient id="skin" x1="0" x2="0" y1="0" y2="1">
      <stop offset="0" stop-color="#f5d7c4"/>
      <stop offset="1" stop-color="#ddb29e"/>
    </linearGradient>
    <radialGradient id="visor" cx=".5" cy=".5" r=".8">
      <stop offset="0" stop-color="#dff8ff"/>
      <stop offset=".55" stop-color="#8fd6ef"/>
      <stop offset="1" stop-color="#437696"/>
    </radialGradient>
  </defs>

  <ellipse cx="180" cy="486" rx="88" ry="24" fill="#000" fill-opacity=".16"/>
  <ellipse cx="180" cy="130" rx="98" ry="110" fill="url(#bgGlow)"/>

  <g transform="translate(0 4)">
    <path d="M180 112l58 22c34 20 50 60 46 108l-10 116h-34l-18-110-42 24-42-24-18 110H86l-10-116c-4-48 12-88 46-108l58-22z" fill="url(#coatOuter)"/>
    <path d="M113 252l22 180h36l9-112 9 112h36l22-180-29 16-38-20-38 20-29-16z" fill="url(#coatInner)"/>
    <path d="M124 174l56-16 56 16v104l-56 16-56-16V174z" fill="url(#armor)"/>
    <path d="M144 184h72v28l-36 14-36-14v-28z" fill="#2a3a4d"/>
    <path d="M142 214l38 16 38-16v50l-38 12-38-12v-50z" fill="#131b25"/>
    <path d="M166 164h28l16 24-30 20-30-20 16-24z" fill="url(#scarf)"/>
    <path d="M180 80c-32 0-58 24-58 60 0 28 17 51 42 59l-6 28h44l-6-28c25-8 42-31 42-59 0-36-26-60-58-60z" fill="url(#skin)"/>
    <path d="M128 119c0-44 30-74 74-74 43 0 74 26 74 72 0 18-5 34-16 48-10-18-22-31-38-38-18 14-47 20-85 17-4 12-11 27-21 44-13-16-18-36-18-69z" fill="url(#hair)"/>
    <path d="M152 124c12 18 30 28 52 31 18 2 33 0 47-6-4-10-11-18-22-25-18 7-44 8-77 0z" fill="#5a687c" fill-opacity=".72"/>
    <path d="M156 151c8 9 17 14 24 14s16-5 24-14" fill="none" stroke="#8c5d54" stroke-width="4" stroke-linecap="round"/>
    <path d="M155 178c7 7 16 10 25 10s18-3 25-10" fill="none" stroke="#aa6f66" stroke-width="3" stroke-linecap="round"/>
    <path d="M151 144c8-8 18-11 29-8" fill="none" stroke="#2f2020" stroke-width="4" stroke-linecap="round"/>
    <path d="M182 136c10-4 20-1 29 8" fill="none" stroke="#2f2020" stroke-width="4" stroke-linecap="round"/>
    <circle cx="164" cy="154" r="5" fill="#27313d"/>
    <circle cx="196" cy="154" r="5" fill="#27313d"/>
    <circle cx="162.5" cy="152.5" r="1.4" fill="#fff" fill-opacity=".74"/>
    <circle cx="194.5" cy="152.5" r="1.4" fill="#fff" fill-opacity=".74"/>

    <path d="M113 236l-40 42 22 24 47-34 9-23-38-9z" fill="url(#skin)"/>
    <path d="M247 234l41 30-13 24-48-18-10-24 30-12z" fill="url(#skin)"/>
    <path d="M107 224l18 18 11 40-33 25-18-18 17-46 5-19z" fill="#d7e0ea"/>
    <path d="M245 223l-18 20-10 37 37 21 16-20-12-44-13-14z" fill="#c8d2de"/>

    <g transform="translate(206 214) rotate(-10)">
      <rect x="0" y="16" width="132" height="18" rx="9" fill="url(#weapon)"/>
      <rect x="82" y="8" width="42" height="8" rx="4" fill="url(#visor)"/>
      <rect x="31" y="28" width="24" height="52" rx="11" fill="#151b24"/>
      <rect x="22" y="12" width="36" height="8" rx="4" fill="#2f3946"/>
      <rect x="110" y="19" width="38" height="12" rx="6" fill="#f2bf73"/>
      <path d="M18 34l-26 26 10 10 30-18V34H18z" fill="#2c3643"/>
    </g>

    <path d="M132 358l-18 116h40l22-88 4 88h40l4-88 22 88h40l-18-116-88 16-88-16z" fill="#1a222e"/>
    <path d="M144 360l36 8 36-8 8 62-44 18-44-18 8-62z" fill="#0e151d"/>
    <path d="M155 430l-14 48h28l8-38-22-10zm50 0l22 10 8 38h-28l-14-48z" fill="#10161f"/>
    <path d="M154 470h28l-2 24h-32l6-24zm56 0h28l6 24h-32l-2-24z" fill="#d8e1ea"/>
    <path d="M143 198l37 28 37-28 11 50-48 23-48-23 11-50z" fill="#eef4fa" fill-opacity=".24"/>
  </g>
</svg>
