<svg xmlns="http://www.w3.org/2000/svg" viewBox="0 0 360 520">
  <defs>
    <linearGradient id="coat" x1="0" x2="1" y1="0" y2="1">
      <stop offset="0" stop-color="#f8fbff"/>
      <stop offset="1" stop-color="#ced6df"/>
    </linearGradient>
    <linearGradient id="weapon" x1="0" x2="1">
      <stop offset="0" stop-color="#1f2431"/>
      <stop offset="1" stop-color="#5f6e7e"/>
    </linearGradient>
    <linearGradient id="hair" x1="0" x2="1" y1="0" y2="1">
      <stop offset="0" stop-color="#2e3948"/>
      <stop offset="1" stop-color="#0c1117"/>
    </linearGradient>
  </defs>
  <ellipse cx="180" cy="486" rx="84" ry="22" fill="#000" fill-opacity=".18"/>
  <g transform="translate(0 8)">
    <path d="M226 140c28 18 39 56 31 100l-11 62h-132l-11-62c-8-44 3-82 31-100l46-18h0l46 18z" fill="url(#coat)"/>
    <path d="M137 205l45 34 42-34 14 92H123l14-92z" fill="#182231" fill-opacity=".92"/>
    <path d="M124 284l-24 102h42l22-86-40-16zm112 0l40 16 22 86h-42l-24-102z" fill="#10161e"/>
    <path d="M149 372l-12 102h37l11-79 11 79h37l-12-102h-72z" fill="#1e2733"/>
    <path d="M173 84c-30 0-56 23-56 55 0 25 16 47 38 55l-7 36h64l-7-36c22-8 38-30 38-55 0-32-26-55-56-55h-14z" fill="#f3d2bf"/>
    <path d="M132 120c0-42 31-72 74-72 36 0 70 27 70 71 0 21-8 37-20 48-10-20-18-31-33-40-17 14-47 22-87 20-4 12-9 26-15 42-13-12-20-30-20-52z" fill="url(#hair)"/>
    <path d="M154 129c9 18 26 31 50 35 18 3 33 2 48-2-5-12-13-22-24-30-20 9-44 11-74-3z" fill="#3d4b60"/>
    <rect x="132" y="210" width="96" height="11" rx="5.5" fill="#ccad9b"/>
    <path d="M119 236l-40 38 20 20 40-32 8-18-28-8z" fill="#f3d2bf"/>
    <path d="M241 236l40 30-12 22-46-20-8-20 26-12z" fill="#f3d2bf"/>
    <g transform="translate(208 215) rotate(-12)">
      <rect x="0" y="16" width="122" height="18" rx="9" fill="url(#weapon)"/>
      <rect x="88" y="10" width="48" height="8" rx="4" fill="#8cdff3"/>
      <rect x="34" y="28" width="24" height="46" rx="10" fill="#1a202b"/>
      <rect x="108" y="19" width="34" height="12" rx="6" fill="#f0ba6f"/>
    </g>
    <path d="M155 236l25 18 25-18v56h-50v-56z" fill="#ef685d"/>
  </g>
</svg>
