<svg xmlns="http://www.w3.org/2000/svg" viewBox="0 0 380 560">
  <defs>
    <radialGradient id="halo" cx=".5" cy=".24" r=".78">
      <stop offset="0" stop-color="#f3fbff" stop-opacity=".94"/>
      <stop offset=".36" stop-color="#83d7ff" stop-opacity=".26"/>
      <stop offset="1" stop-color="#081018" stop-opacity="0"/>
    </radialGradient>
    <linearGradient id="coatLight" x1="0" x2="1" y1="0" y2="1">
      <stop offset="0" stop-color="#f7fbff"/>
      <stop offset=".44" stop-color="#dfe7ef"/>
      <stop offset="1" stop-color="#90a0b3"/>
    </linearGradient>
    <linearGradient id="coatDark" x1="0" x2="1" y1="0" y2="1">
      <stop offset="0" stop-color="#101822"/>
      <stop offset=".48" stop-color="#1b2633"/>
      <stop offset="1" stop-color="#070c12"/>
    </linearGradient>
    <linearGradient id="armor" x1="0" x2="0" y1="0" y2="1">
      <stop offset="0" stop-color="#32445b"/>
      <stop offset=".45" stop-color="#1a2535"/>
      <stop offset="1" stop-color="#0b1219"/>
    </linearGradient>
    <linearGradient id="accent" x1="0" x2="1">
      <stop offset="0" stop-color="#8ddcff"/>
      <stop offset=".54" stop-color="#f2fdff"/>
      <stop offset="1" stop-color="#4aa8d3"/>
    </linearGradient>
    <linearGradient id="hairBack" x1="0" x2="1" y1="0" y2="1">
      <stop offset="0" stop-color="#4d5764"/>
      <stop offset=".42" stop-color="#1f2832"/>
      <stop offset="1" stop-color="#070b10"/>
    </linearGradient>
    <linearGradient id="hairFront" x1="0" x2="1" y1="0" y2="1">
      <stop offset="0" stop-color="#697688"/>
      <stop offset=".42" stop-color="#303b49"/>
      <stop offset="1" stop-color="#0e1318"/>
    </linearGradient>
    <linearGradient id="skin" x1="0" x2="0" y1="0" y2="1">
      <stop offset="0" stop-color="#f8ddcb"/>
      <stop offset=".58" stop-color="#efc7af"/>
      <stop offset="1" stop-color="#d2a18a"/>
    </linearGradient>
    <linearGradient id="scarf" x1="0" x2="1" y1="0" y2="1">
      <stop offset="0" stop-color="#f19069"/>
      <stop offset=".54" stop-color="#d75644"/>
      <stop offset="1" stop-color="#8c2a29"/>
    </linearGradient>
    <linearGradient id="metal" x1="0" x2="1">
      <stop offset="0" stop-color="#171e27"/>
      <stop offset=".48" stop-color="#455361"/>
      <stop offset="1" stop-color="#d9e7f2"/>
    </linearGradient>
    <radialGradient id="scopeGlow" cx=".45" cy=".4" r=".8">
      <stop offset="0" stop-color="#f2fdff"/>
      <stop offset=".28" stop-color="#bfefff"/>
      <stop offset=".66" stop-color="#69c6ef"/>
      <stop offset="1" stop-color="#2e5873"/>
    </radialGradient>
  </defs>

  <ellipse cx="190" cy="518" rx="100" ry="24" fill="#000" fill-opacity=".18"/>
  <ellipse cx="190" cy="120" rx="122" ry="120" fill="url(#halo)"/>

  <g transform="translate(0 2)">
    <path d="M190 114l66 18c40 20 62 62 60 118l-10 128h-44l-16-106-56 34-56-34-16 106H74l-10-128c-2-56 20-98 60-118l66-18z" fill="url(#coatLight)"/>
    <path d="M122 250l20 192h50l8-122 8 122h50l20-192-36 20-52-24-52 24-36-20z" fill="url(#coatDark)"/>
    <path d="M132 176l58-20 58 20v118l-58 18-58-18V176z" fill="url(#armor)"/>
    <path d="M150 188h80v34l-40 14-40-14v-34z" fill="#34485f"/>
    <path d="M148 228l42 14 42-14v52l-42 14-42-14v-52z" fill="#0f171f"/>
    <path d="M140 204l50 24 50-24 10 52-60 30-60-30 10-52z" fill="#eff8ff" fill-opacity=".18"/>
    <path d="M174 160h32l22 30-38 20-38-20 22-30z" fill="url(#scarf)"/>
    <path d="M120 206l-16 32 26 22 18-22-28-32z" fill="#edf6ff" fill-opacity=".62"/>
    <path d="M260 206l16 32-26 22-18-22 28-32z" fill="#edf6ff" fill-opacity=".42"/>
    <path d="M160 304h60" fill="none" stroke="url(#accent)" stroke-width="4.4" stroke-linecap="round"/>

    <path d="M190 82c-36 0-64 29-64 66 0 31 18 56 44 66l-8 28h56l-8-28c26-10 44-35 44-66 0-37-28-66-64-66z" fill="url(#skin)"/>
    <path d="M120 116c0-54 38-90 88-90 50 0 86 34 86 88 0 24-8 46-22 66-4-22-14-42-30-58-16 22-43 34-80 34-13 0-24-1-35-4-5 16-12 31-22 46-15-16-23-46-23-82z" fill="url(#hairBack)"/>
    <path d="M128 114c10-22 28-38 48-46-12 18-10 42 8 60 24 24 66 24 100 12-14-22-34-38-58-44 25-4 46 0 62 12-8-42-38-68-78-68-39 0-67 20-82 74z" fill="url(#hairFront)"/>
    <path d="M134 98c18 12 40 18 64 18 22 0 42-4 60-14-4-8-10-16-18-24-26 10-56 12-106 0z" fill="#8fa1b7" fill-opacity=".42"/>
    <path d="M152 142c10-10 22-14 35-13" fill="none" stroke="#2f2524" stroke-width="4.2" stroke-linecap="round"/>
    <path d="M192 128c14-3 26 2 35 13" fill="none" stroke="#2f2524" stroke-width="4.2" stroke-linecap="round"/>
    <ellipse cx="170" cy="154" rx="5.6" ry="6.8" fill="#1d2630"/>
    <ellipse cx="208" cy="154" rx="5.6" ry="6.8" fill="#1d2630"/>
    <circle cx="168.2" cy="152.6" r="1.5" fill="#fff" fill-opacity=".84"/>
    <circle cx="206.2" cy="152.6" r="1.5" fill="#fff" fill-opacity=".84"/>
    <path d="M182 168c2 3 6 4 10 3" fill="none" stroke="#bf8c7d" stroke-width="2.8" stroke-linecap="round"/>
    <path d="M164 184c8 8 16 12 26 12 8 0 16-4 24-12" fill="none" stroke="#bc6e69" stroke-width="3.4" stroke-linecap="round"/>
    <path d="M158 202c8 10 18 16 32 18 16-2 30-8 40-20-8 22-22 36-40 40-16-1-30-12-40-38z" fill="#d79f88" fill-opacity=".22"/>
    <path d="M142 112c14-4 25-2 34 6-15-1-26 2-36 10 0-6 0-11 2-16z" fill="#202932" fill-opacity=".52"/>

    <path d="M112 238l-44 50 24 26 52-38 10-28-42-10z" fill="url(#skin)"/>
    <path d="M270 234l42 34-14 26-54-22-12-28 38-10z" fill="url(#skin)"/>
    <path d="M108 222l20 18 12 44-36 30-22-18 18-50 8-24z" fill="#dde7f0"/>
    <path d="M262 220l-22 22-10 42 38 24 18-20-14-48-10-20z" fill="#ccd8e4"/>

    <g transform="translate(214 208) rotate(-10)">
      <rect x="0" y="18" width="144" height="18" rx="9" fill="url(#metal)"/>
      <rect x="78" y="6" width="48" height="10" rx="5" fill="url(#scopeGlow)"/>
      <rect x="108" y="20" width="42" height="12" rx="6" fill="#f4c06e"/>
      <rect x="34" y="28" width="24" height="58" rx="11" fill="#101821"/>
      <rect x="20" y="10" width="40" height="8" rx="4" fill="#314050"/>
      <rect x="50" y="14" width="20" height="24" rx="4" fill="#26323f"/>
      <path d="M20 34l-28 28 10 10 32-18V34H20z" fill="#263242"/>
      <path d="M22 19h92" fill="none" stroke="#dce8f2" stroke-width="2.6" stroke-linecap="round" stroke-opacity=".62"/>
    </g>

    <path d="M138 378l-18 118h44l20-92 6 92h42l6-92 20 92h44l-18-118-100 16-100-16z" fill="#1b2430"/>
    <path d="M152 382l38 8 38-8 10 66-48 18-48-18 10-66z" fill="#0d151d"/>
    <path d="M164 454l-14 48h30l8-38-24-10zm52 0l24 10 8 38h-30l-14-48z" fill="#101821"/>
    <path d="M162 494h30l-2 26h-34l6-26zm56 0h30l6 26h-34l-2-26z" fill="#d8e1ea"/>
    <path d="M132 186h8m108 0h8m-74 140v30m20-30v30" fill="none" stroke="url(#accent)" stroke-width="3.4" stroke-linecap="round" stroke-opacity=".94"/>
  </g>
</svg>
