<svg xmlns="http://www.w3.org/2000/svg" viewBox="0 0 360 520">
  <defs>
    <linearGradient id="dress" x1="0" x2="1" y1="0" y2="1">
      <stop offset="0" stop-color="#f4fffc"/>
      <stop offset=".55" stop-color="#8cd6c7"/>
      <stop offset="1" stop-color="#286f66"/>
    </linearGradient>
    <linearGradient id="hair" x1="0" x2="1" y1="0" y2="1">
      <stop offset="0" stop-color="#d4fff1"/>
      <stop offset="1" stop-color="#4ea698"/>
    </linearGradient>
  </defs>
  <ellipse cx="180" cy="486" rx="86" ry="22" fill="#000" fill-opacity=".14"/>
  <circle cx="180" cy="150" r="118" fill="#79cfc2" fill-opacity=".18"/>
  <path d="M107 168c0-53 33-92 81-92 45 0 82 35 82 88 0 36-15 64-40 96l-18-13 4-54c2-32-17-54-45-54-30 0-52 24-50 56l2 52-22 16c-9-18-17-42-17-70 0-10 1-18 4-25z" fill="url(#hair)"/>
  <path d="M116 255c0-41 29-70 64-70 37 0 64 30 64 70v54H116v-54z" fill="url(#dress)"/>
  <path d="M134 310c19 16 37 23 52 23 18 0 36-5 55-15l20 69H98l36-77z" fill="#eefaf8"/>
  <path d="M149 330l-12 144h39l8-82 7 82h39l-14-144h-67z" fill="#539b93"/>
  <path d="M170 91c-31 0-56 25-56 59 0 25 15 48 36 57l-4 31h68l-4-31c21-10 36-32 36-57 0-34-25-59-56-59h-20z" fill="#f5d8ca"/>
  <path d="M111 130c0-45 32-72 79-72 41 0 75 26 75 77 0 16-4 30-9 42-12-16-28-28-46-35-17 12-42 18-77 18-8 0-16 2-24 5-1-10-2-21-2-35z" fill="#75c7ba"/>
  <path d="M148 244l32 26 32-26v54h-64v-54z" fill="#3f8279"/>
  <path d="M149 205h58" stroke="#69978f" stroke-width="8" stroke-linecap="round"/>
  <path d="M112 188L82 276l26 9 34-78-30-19zm136 0l30 88-26 9-34-78 30-19z" fill="#f7e4db"/>
  <path d="M279 118h24v24h-24zm-13 35h18v18h-18z" fill="#bfe7e0"/>
</svg>
