<svg xmlns="http://www.w3.org/2000/svg" viewBox="0 0 360 520">
  <defs>
    <linearGradient id="dress" x1="0" x2="1" y1="0" y2="1">
      <stop offset="0" stop-color="#071515"/>
      <stop offset=".55" stop-color="#18463f"/>
      <stop offset="1" stop-color="#120706"/>
    </linearGradient>
    <linearGradient id="hair" x1="0" x2="1" y1="0" y2="1">
      <stop offset="0" stop-color="#98e3d6"/>
      <stop offset="1" stop-color="#2e584d"/>
    </linearGradient>
  </defs>
  <ellipse cx="180" cy="486" rx="92" ry="24" fill="#000" fill-opacity=".22"/>
  <circle cx="180" cy="150" r="120" fill="#66c5b5" fill-opacity=".16"/>
  <path d="M96 190c10-69 42-118 92-118 51 0 92 43 92 106 0 35-14 67-37 101l-19-16 4-59c2-32-18-57-47-57-29 0-50 26-47 58l4 61-25 19c-10-18-18-44-18-79 0-6 0-11 1-16z" fill="url(#hair)"/>
  <path d="M111 257c0-42 29-73 68-73 40 0 68 31 68 73v55H111v-55z" fill="url(#dress)"/>
  <path d="M132 312c23 14 38 18 47 18 18 0 39-4 60-13l23 70H98l34-75z" fill="#0b1112"/>
  <path d="M149 330l-13 144h40l8-83 8 83h40l-15-144h-68z" fill="#2e726c"/>
  <path d="M170 90c-31 0-56 26-56 60 0 26 15 48 36 57l-5 31h70l-4-31c21-9 35-31 35-57 0-34-24-60-56-60h-20z" fill="#f1d4c4"/>
  <path d="M110 131c0-46 32-74 80-74 43 0 76 27 76 78 0 16-4 28-9 41-13-17-27-27-45-34-17 12-42 18-78 18-7 1-15 2-23 5-1-10-2-20-1-34z" fill="#4f968c"/>
  <path d="M148 244l32 26 32-26v54h-64v-54z" fill="#245851"/>
  <path d="M149 205h58" stroke="#5b8d88" stroke-width="8" stroke-linecap="round"/>
  <circle cx="165" cy="177" r="5" fill="#bff9f0"/><circle cx="202" cy="177" r="5" fill="#bff9f0"/>
  <path d="M112 189L82 276l26 10 35-78-31-19zm136 0l30 87-26 10-35-78 31-19z" fill="#f0ddd3"/>
  <path d="M280 118h24v24h-24zm-16 36h18v18h-18zm-184-8h20v20H80zm-22 34h16v16H58z" fill="#8fd0c4"/>
  <path d="M63 88c19 6 31 19 35 39m199-39c-19 6-31 19-35 39" fill="none" stroke="#f6bf7a" stroke-width="8" stroke-linecap="round"/>
</svg>
