<svg xmlns="http://www.w3.org/2000/svg" viewBox="0 0 360 520">
  <defs>
    <linearGradient id="dress" x1="0" x2="1" y1="0" y2="1">
      <stop offset="0" stop-color="#fff7fb"/>
      <stop offset=".55" stop-color="#ffbdd6"/>
      <stop offset="1" stop-color="#ea6a93"/>
    </linearGradient>
    <linearGradient id="hair" x1="0" x2="1" y1="0" y2="1">
      <stop offset="0" stop-color="#ffe7f0"/>
      <stop offset="1" stop-color="#da6586"/>
    </linearGradient>
  </defs>
  <ellipse cx="180" cy="486" rx="84" ry="22" fill="#000" fill-opacity=".14"/>
  <circle cx="180" cy="150" r="116" fill="#ffb1cc" fill-opacity=".18"/>
  <path d="M110 164c0-52 31-89 77-89 48 0 84 35 84 90 0 34-15 60-39 91l-19-11 3-50c2-32-18-56-47-56-30 0-51 24-49 57l2 50-20 13c-10-17-18-42-18-68 0-9 1-18 5-27h21z" fill="url(#hair)"/>
  <path d="M116 256c0-41 29-71 64-71 37 0 64 30 64 71v53H116v-53z" fill="url(#dress)"/>
  <path d="M134 310c19 16 37 23 52 23 18 0 36-5 55-15l20 69H98l36-77z" fill="#fff4f8"/>
  <path d="M149 330l-12 144h39l7-82 8 82h40l-15-144h-67z" fill="#f38cad"/>
  <path d="M170 90c-31 0-56 25-56 59 0 25 15 48 36 57l-4 32h68l-4-32c21-9 36-32 36-57 0-34-25-59-56-59h-20z" fill="#f5d5c6"/>
  <path d="M111 130c0-44 32-72 79-72 43 0 74 27 74 79 0 17-4 30-9 42-13-17-27-28-45-35-17 12-43 18-78 18-7 0-14 2-23 5-1-11-2-23-2-37z" fill="#f39cbc"/>
  <path d="M148 244l32 26 32-26v54h-64v-54z" fill="#ff7fa8"/>
  <path d="M149 205h58" stroke="#c97593" stroke-width="8" stroke-linecap="round"/>
  <path d="M112 188L82 276l26 9 34-78-30-19zm136 0l30 88-26 9-34-78 30-19z" fill="#f7e0d6"/>
  <path d="M282 123l-24 14 20 11-20 11" fill="none" stroke="#ffd4e2" stroke-width="7" stroke-linecap="round"/>
</svg>
