<svg xmlns="http://www.w3.org/2000/svg" viewBox="0 0 360 520">
  <defs>
    <linearGradient id="dress" x1="0" x2="1" y1="0" y2="1">
      <stop offset="0" stop-color="#edffff"/>
      <stop offset=".5" stop-color="#77d4e7"/>
      <stop offset="1" stop-color="#11739b"/>
    </linearGradient>
    <linearGradient id="hair" x1="0" x2="1" y1="0" y2="1">
      <stop offset="0" stop-color="#dffbff"/>
      <stop offset="1" stop-color="#49b4d6"/>
    </linearGradient>
  </defs>
  <ellipse cx="180" cy="486" rx="86" ry="22" fill="#000" fill-opacity=".14"/>
  <circle cx="180" cy="150" r="118" fill="#78d8ee" fill-opacity=".18"/>
  <path d="M108 166c0-54 32-92 81-92 46 0 82 35 82 90 0 35-15 63-39 94l-19-12 4-52c2-31-18-55-46-55-30 0-51 24-49 56l1 52-20 14c-9-18-18-42-18-70 0-9 2-18 7-25z" fill="url(#hair)"/>
  <path d="M116 255c0-41 29-70 64-70 37 0 64 30 64 70v54H116v-54z" fill="url(#dress)"/>
  <path d="M134 310c20 16 38 23 53 23 18 0 36-5 54-15l20 69H98l36-77z" fill="#f0fdff"/>
  <path d="M149 330l-12 144h39l8-82 7 82h39l-14-144h-67z" fill="#49a7c6"/>
  <path d="M170 90c-31 0-56 25-56 59 0 25 15 48 36 57l-4 32h68l-4-32c21-9 36-32 36-57 0-34-25-59-56-59h-20z" fill="#f5d8c9"/>
  <path d="M111 129c0-45 32-72 80-72 43 0 74 26 74 78 0 16-4 29-9 41-13-17-27-27-45-34-17 12-43 18-78 18-8 1-15 2-24 5-1-10-2-21-2-36z" fill="#75cfe8"/>
  <path d="M148 244l32 26 32-26v54h-64v-54z" fill="#3db5d9"/>
  <path d="M149 205h58" stroke="#72abc2" stroke-width="8" stroke-linecap="round"/>
  <path d="M112 188L82 276l26 9 34-78-30-19zm136 0l30 88-26 9-34-78 30-19z" fill="#f8e4dc"/>
  <path d="M279 124c8 15 8 30 0 45 8-2 16-8 23-18-6-10-14-18-23-27z" fill="#c1f5ff"/>
</svg>
