<svg xmlns="http://www.w3.org/2000/svg" viewBox="0 0 360 520">
  <defs>
    <linearGradient id="dress" x1="0" x2="1" y1="0" y2="1">
      <stop offset="0" stop-color="#081522"/>
      <stop offset=".5" stop-color="#12324d"/>
      <stop offset="1" stop-color="#09111d"/>
    </linearGradient>
    <linearGradient id="hair" x1="0" x2="1" y1="0" y2="1">
      <stop offset="0" stop-color="#e0f9ff"/>
      <stop offset="1" stop-color="#3a7aa7"/>
    </linearGradient>
  </defs>
  <ellipse cx="180" cy="486" rx="90" ry="24" fill="#000" fill-opacity=".22"/>
  <circle cx="180" cy="150" r="124" fill="#5ba7db" fill-opacity=".18"/>
  <path d="M95 188c8-70 42-118 93-118 51 0 93 45 93 108 0 35-15 67-36 101l-21-15 4-59c2-31-18-58-47-58-30 0-50 27-47 59l5 61-27 20c-11-17-20-45-20-80 0-6 0-13 3-19z" fill="url(#hair)"/>
  <path d="M111 256c0-43 29-74 69-74 39 0 68 31 68 74v56H111v-56z" fill="url(#dress)"/>
  <path d="M132 312c23 14 39 18 48 18 18 0 39-4 60-13l22 70H98l34-75z" fill="#08111d"/>
  <path d="M150 332l-14 142h40l8-84 8 84h39l-15-142h-66z" fill="#264767"/>
  <path d="M170 90c-32 0-56 26-56 60 0 26 14 48 35 58l-4 30h70l-4-30c21-10 35-32 35-58 0-34-24-60-56-60h-20z" fill="#f2cfc0"/>
  <path d="M110 132c0-46 31-75 79-75 41 0 77 28 77 79 0 16-4 28-9 42-13-18-27-28-44-35-17 13-42 18-78 18-8 0-15 2-23 5-1-11-2-22-2-34z" fill="#5b97bf"/>
  <path d="M148 246l32 26 32-26v54h-64v-54z" fill="#1c5e8d"/>
  <circle cx="165" cy="177" r="5" fill="#b6f8ff"/>
  <circle cx="202" cy="177" r="5" fill="#b6f8ff"/>
  <path d="M149 206h54" stroke="#7dbad3" stroke-width="8" stroke-linecap="round"/>
  <path d="M112 191L80 278l28 9 35-78-31-18zm136 0l32 87-28 9-35-78 31-18z" fill="#f3ddd4"/>
  <path d="M286 127l-18 12 18 12-18 12" fill="none" stroke="#79d0ec" stroke-width="7" stroke-linecap="round"/>
</svg>
