<svg xmlns="http://www.w3.org/2000/svg" viewBox="0 0 360 520">
  <defs>
    <linearGradient id="dress" x1="0" x2="1" y1="0" y2="1">
      <stop offset="0" stop-color="#fff5e3"/>
      <stop offset=".55" stop-color="#efc777"/>
      <stop offset="1" stop-color="#a36f2c"/>
    </linearGradient>
    <linearGradient id="hair" x1="0" x2="1" y1="0" y2="1">
      <stop offset="0" stop-color="#ffe7a3"/>
      <stop offset="1" stop-color="#b07a34"/>
    </linearGradient>
  </defs>
  <ellipse cx="180" cy="486" rx="86" ry="22" fill="#000" fill-opacity=".14"/>
  <circle cx="180" cy="150" r="118" fill="#efcf7c" fill-opacity=".18"/>
  <path d="M108 166c0-54 32-90 81-90 47 0 82 35 82 89 0 35-14 63-39 93l-18-10 4-53c2-32-17-56-46-56-29 0-51 24-49 57l1 52-20 14c-9-17-18-41-18-68 0-10 2-19 6-28h16z" fill="url(#hair)"/>
  <path d="M116 255c0-41 29-70 64-70 37 0 64 30 64 70v54H116v-54z" fill="url(#dress)"/>
  <path d="M134 310c20 16 38 23 53 23 18 0 36-5 54-15l20 69H98l36-77z" fill="#fff8ea"/>
  <path d="M149 330l-12 144h39l8-82 7 82h39l-14-144h-67z" fill="#c7954a"/>
  <path d="M170 90c-31 0-56 25-56 59 0 25 15 48 36 57l-4 32h68l-4-32c21-9 36-32 36-57 0-34-25-59-56-59h-20z" fill="#f4d4c1"/>
  <path d="M111 130c0-45 32-72 80-72 43 0 74 26 74 78 0 16-4 29-9 42-13-17-27-28-45-35-17 12-43 18-78 18-8 0-16 2-24 5-1-10-2-22-2-36z" fill="#d9a555"/>
  <path d="M148 244l32 26 32-26v54h-64v-54z" fill="#d79d4a"/>
  <path d="M149 205h58" stroke="#ac8042" stroke-width="8" stroke-linecap="round"/>
  <path d="M112 188L82 276l26 9 34-78-30-19zm136 0l30 88-26 9-34-78 30-19z" fill="#f7e2d6"/>
  <path d="M280 121l-22 16 11 13-14 8" fill="none" stroke="#ffe39b" stroke-width="7" stroke-linecap="round"/>
</svg>
