<svg xmlns="http://www.w3.org/2000/svg" viewBox="0 0 360 520">
  <defs>
    <linearGradient id="dress" x1="0" x2="1" y1="0" y2="1">
      <stop offset="0" stop-color="#2a2415"/>
      <stop offset=".45" stop-color="#64501a"/>
      <stop offset="1" stop-color="#0a0a10"/>
    </linearGradient>
    <linearGradient id="hair" x1="0" x2="1" y1="0" y2="1">
      <stop offset="0" stop-color="#fce793"/>
      <stop offset="1" stop-color="#685011"/>
    </linearGradient>
  </defs>
  <ellipse cx="180" cy="486" rx="92" ry="24" fill="#000" fill-opacity=".22"/>
  <circle cx="180" cy="152" r="122" fill="#f0ca45" fill-opacity=".16"/>
  <path d="M100 166c8-54 40-92 87-92 52 0 93 39 93 98 0 38-12 68-34 98l-20-12 4-54c2-34-18-57-47-57-29 0-53 24-52 57l1 53-23 17c-10-18-18-43-18-76 0-11 3-23 9-32z" fill="url(#hair)"/>
  <path d="M113 258c0-43 30-74 67-74 39 0 68 31 68 74v52H113v-52z" fill="url(#dress)"/>
  <path d="M132 310c24 13 41 18 49 18 18 0 38-4 61-13l21 72H97l35-77z" fill="#121014"/>
  <path d="M150 330l-14 144h40l8-84 8 84h40l-15-144h-67z" fill="#594418"/>
  <path d="M170 90c-32 0-56 25-56 59 0 26 15 48 35 58l-4 31h71l-5-31c21-10 35-32 35-58 0-34-24-59-56-59h-20z" fill="#f2cfba"/>
  <path d="M111 130c0-46 32-74 79-74 45 0 80 29 80 81 0 15-3 28-8 41-14-17-28-28-46-35-18 12-44 18-80 18-8 1-16 3-24 5-1-10-1-20-1-36z" fill="#6e5816"/>
  <path d="M148 246l32 27 32-27v54h-64v-54z" fill="#b18b22"/>
  <path d="M151 205h58" stroke="#927328" stroke-width="8" stroke-linecap="round"/>
  <circle cx="165" cy="177" r="5" fill="#ffe88d"/>
  <circle cx="202" cy="177" r="5" fill="#ffe88d"/>
  <path d="M137 122l-17-27 23-20 11 26-17 21zm83 0l17-27-23-20-11 26 17 21z" fill="#120f12"/>
  <path d="M111 188l-32 88 28 10 34-78-30-20zm138 0l32 88-28 10-34-78 30-20z" fill="#ead5ca"/>
</svg>
