<svg xmlns="http://www.w3.org/2000/svg" viewBox="0 0 360 520">
  <defs>
    <linearGradient id="dress" x1="0" x2="1" y1="0" y2="1">
      <stop offset="0" stop-color="#fff4bf"/>
      <stop offset=".52" stop-color="#ffd96e"/>
      <stop offset="1" stop-color="#2f2d33"/>
    </linearGradient>
    <linearGradient id="hair" x1="0" x2="1" y1="0" y2="1">
      <stop offset="0" stop-color="#fff1b7"/>
      <stop offset="1" stop-color="#c99f2b"/>
    </linearGradient>
  </defs>
  <ellipse cx="180" cy="486" rx="86" ry="22" fill="#000" fill-opacity=".15"/>
  <circle cx="180" cy="154" r="120" fill="#ffe47b" fill-opacity=".18"/>
  <path d="M103 163c7-51 40-89 84-89 50 0 92 37 92 96 0 35-12 62-34 91l-16-7 3-49c2-35-18-58-46-58-30 0-54 24-53 58l1 48-20 15c-10-16-18-43-18-72 0-11 2-22 7-33z" fill="url(#hair)"/>
  <path d="M114 259c0-42 29-73 66-73 38 0 66 31 66 73v50H114v-50z" fill="url(#dress)"/>
  <path d="M132 309c25 14 42 18 49 18 18 0 38-4 59-12l21 72H98l34-78z" fill="#101317"/>
  <path d="M149 330l-12 144h39l7-84 8 84h40l-15-144h-67z" fill="#403833"/>
  <path d="M170 92c-31 0-56 25-56 58 0 26 15 48 35 58l-4 30h70l-4-30c20-10 35-32 35-58 0-33-25-58-56-58h-20z" fill="#f4d2bf"/>
  <path d="M110 129c0-46 31-74 79-74 43 0 79 26 79 80 0 13-4 27-9 41-14-17-28-27-45-34-18 13-43 18-78 19-8 1-16 3-23 6-2-12-3-24-3-38z" fill="#d4ac39"/>
  <path d="M149 246l31 26 31-26v54h-62v-54z" fill="#ffd45f"/>
  <path d="M149 205h58" stroke="#bc9642" stroke-width="8" stroke-linecap="round"/>
  <path d="M109 187l-30 88 27 10 32-78-29-20zm142 0l30 88-27 10-32-78 29-20z" fill="#f4dfd1"/>
  <path d="M285 123l-18 17 12 10-12 10" fill="none" stroke="#ffe889" stroke-width="7" stroke-linecap="round"/>
</svg>
