<svg xmlns="http://www.w3.org/2000/svg" viewBox="0 0 360 520">
  <defs>
    <linearGradient id="dress" x1="0" x2="1" y1="0" y2="1">
      <stop offset="0" stop-color="#1e0912"/>
      <stop offset=".5" stop-color="#5d1d39"/>
      <stop offset="1" stop-color="#0e070d"/>
    </linearGradient>
    <linearGradient id="hair" x1="0" x2="1" y1="0" y2="1">
      <stop offset="0" stop-color="#ffc6bc"/>
      <stop offset="1" stop-color="#70324e"/>
    </linearGradient>
  </defs>
  <ellipse cx="180" cy="486" rx="92" ry="24" fill="#000" fill-opacity=".22"/>
  <circle cx="180" cy="150" r="122" fill="#ff8f8f" fill-opacity=".16"/>
  <path d="M92 188c8-66 42-113 93-113 51 0 92 43 92 105 0 35-14 67-37 99l-20-14 5-59c1-31-18-56-47-56-30 0-50 25-48 56l4 60-25 18c-10-17-17-44-17-77 0-7 0-12 0-19z" fill="url(#hair)"/>
  <path d="M111 257c0-43 29-73 68-73 40 0 68 30 68 73v55H111v-55z" fill="url(#dress)"/>
  <path d="M132 312c23 14 38 18 48 18 19 0 39-4 59-13l23 70H98l34-75z" fill="#12080f"/>
  <path d="M149 330l-13 144h40l8-84 8 84h40l-15-144h-68z" fill="#8e3a5d"/>
  <path d="M170 90c-31 0-56 26-56 60 0 26 15 48 36 57l-5 31h70l-4-31c21-9 35-31 35-57 0-34-24-60-56-60h-20z" fill="#f1d2c4"/>
  <path d="M110 131c0-46 32-74 80-74 43 0 76 27 76 79 0 15-4 28-9 41-13-17-27-28-45-34-17 12-42 18-78 18-8 0-15 2-23 5-1-11-2-21-1-35z" fill="#94486a"/>
  <path d="M148 244l32 26 32-26v54h-64v-54z" fill="#d66784"/>
  <path d="M149 205h58" stroke="#ac6c80" stroke-width="8" stroke-linecap="round"/>
  <circle cx="165" cy="177" r="5" fill="#ffe5dc"/><circle cx="202" cy="177" r="5" fill="#ffe5dc"/>
  <path d="M112 189L82 276l26 10 35-78-31-19zm136 0l30 87-26 10-35-78 31-19z" fill="#f2ddd6"/>
  <path d="M277 98a30 30 0 1 0 0 60 28 28 0 1 1 0-60zM71 112a22 22 0 1 0 0 44 20 20 0 1 1 0-44z" fill="#ffd7c6" fill-opacity=".7"/>
</svg>
